HIERARCHY
ROOT Hips
{
	OFFSET 0.000000 0.000000 0.000000
	CHANNELS 6 Xposition Yposition Zposition Zrotation Yrotation Xrotation 
	JOINT LHipJoint
	{
		OFFSET 0.000000 0.000000 0.000000
		CHANNELS 3 Zrotation Yrotation Xrotation
		JOINT LeftUpLeg
		{
			OFFSET 1.363060 -1.794630 0.839290
			CHANNELS 3 Zrotation Yrotation Xrotation
			JOINT LeftLeg
			{
				OFFSET 2.448110 -6.726130 0.000000
				CHANNELS 3 Zrotation Yrotation Xrotation
				JOINT LeftFoot
				{
					OFFSET 2.562200 -7.039590 0.000000
					CHANNELS 3 Zrotation Yrotation Xrotation
					JOINT LeftToeBase
					{
						OFFSET 0.157640 -0.433110 2.322550
						CHANNELS 3 Zrotation Yrotation Xrotation
						End Site
						{
							OFFSET 0.000000 0.000000 0.000000
						}
					}
				}
			}
		}
	}
	JOINT RHipJoint
	{
		OFFSET 0.000000 0.000000 0.000000
		CHANNELS 3 Zrotation Yrotation Xrotation
		JOINT RightUpLeg
		{
			OFFSET -1.305520 -1.794630 0.839290
			CHANNELS 3 Zrotation Yrotation Xrotation
			JOINT RightLeg
			{
				OFFSET -2.542530 -6.985550 0.000000
				CHANNELS 3 Zrotation Yrotation Xrotation
				JOINT RightFoot
				{
					OFFSET -2.568260 -7.056230 0.000000
					CHANNELS 3 Zrotation Yrotation Xrotation
					JOINT RightToeBase
					{
						OFFSET -0.164730 -0.452590 2.363150
						CHANNELS 3 Zrotation Yrotation Xrotation
						End Site
						{
							OFFSET 0.000000 0.000000 0.000000
						}
					}
				}
			}
		}
	}
}
MOTION
Frames: 30
Frame Time: 0.008333
9.476767 15.881812 -2.888801 -170.153684 57.410905 -143.588259 -11.433165 0.217883 0.788924 -22.224549 -7.631736 -33.622370 -2.407450 0.972567 41.332215 2.884061 5.630294 -33.374018 176.282000 0.000001 -8.998100 9.256253 -0.183748 -1.412089 -1.947683 -0.300848 -42.076211 -1.795921 -5.079218 79.511674 -2.419062 -12.189777 -14.315881 1.165500 -0.000000 -45.961600
9.672015 15.976675 -3.034482 -170.357195 56.567074 -143.437412 -11.679387 0.201563 0.682715 -21.570600 -7.508127 -32.230700 -2.353870 0.886054 40.024262 2.606531 5.156369 -31.497032 176.763500 -0.000000 -7.345200 8.926046 0.099820 -1.202594 -1.891561 0.672462 -43.968570 -1.620030 -4.943466 77.728616 -2.417823 -11.881488 -14.314176 1.119100 0.000000 -46.620801
9.866212 16.078869 -3.181685 -170.515388 55.734714 -143.232540 -11.944369 0.186479 0.566376 -20.859206 -7.365074 -30.984712 -2.270256 0.830944 38.863162 2.302377 4.655529 -29.270840 177.279300 -0.000000 -4.483500 8.567576 0.361403 -0.983186 -1.818038 1.654314 -45.778453 -1.414681 -4.783106 75.526343 -2.432344 -11.625548 -14.258339 1.062600 0.000000 -47.555800
10.060324 16.187189 -3.329813 -170.647598 54.914547 -142.993970 -12.224875 0.178087 0.433315 -20.114656 -7.165146 -29.898444 -2.157748 0.810969 37.860976 1.976823 4.121158 -26.665033 177.819000 -0.000001 -0.066500 8.186311 0.594814 -0.750932 -1.743174 2.645005 -47.483109 -1.183333 -4.597917 72.890975 -2.460943 -11.407764 -14.150520 0.994200 0.000000 -48.667600
10.255353 16.300118 -3.478630 -170.765966 54.108519 -142.738077 -12.517473 0.181058 0.277489 -19.362175 -6.868605 -28.974529 -2.016721 0.826880 37.010108 1.641212 3.566522 -23.649022 -1.639100 0.000000 -6.271900 7.788355 0.794048 -0.502370 -1.683013 3.641102 -49.059998 -0.929857 -4.386877 69.810774 -2.500049 -11.207495 -13.980651 0.908900 0.000000 -49.869199
10.452357 16.415758 -3.628070 -170.881356 53.323997 -142.480353 -12.817589 0.198352 0.093956 -18.628391 -6.439905 -28.206956 -1.849044 0.876137 36.289951 1.315435 3.026627 -20.228257 -1.128400 0.000000 -14.660800 7.380264 0.954319 -0.233732 -1.651772 4.635197 -50.490384 -0.658607 -4.147805 66.280860 -2.544207 -11.000404 -13.728173 0.799801 -0.000000 -51.062600
10.652362 16.531780 -3.778404 -171.004173 52.575534 -142.235684 -13.114670 0.228048 -0.120511 -17.947537 -5.863557 -27.580403 -1.670219 0.950160 35.699645 1.031063 2.536020 -16.634240 -0.697100 0.000001 -23.233400 6.969337 1.072844 0.058914 -1.662798 5.611771 -51.761987 -0.373937 -3.877191 62.306018 -2.585890 -10.761014 -13.363334 0.658800 -0.000000 -52.172500
10.856154 16.645532 -3.930167 -171.135756 51.876715 -142.010551 -13.401499 0.269092 -0.366244 -17.347301 -5.132805 -27.074875 -1.490371 1.041018 35.236823 0.807815 2.144846 -13.017565 -0.365200 0.000000 -31.123200 6.563294 1.146780 0.379753 -1.719108 6.551757 -52.870384 -0.078816 -3.570782 57.899870 -2.616310 -10.470074 -12.848737 0.478500 -0.000000 -53.180500
11.064575 16.754213 -4.083711 -171.282858 51.244496 -141.814663 -13.670472 0.320653 -0.642098 -16.851553 -4.251705 -26.669425 -1.321501 1.141377 34.917376 0.657396 1.903990 -9.563315 -0.131800 0.000000 -37.169901 6.171440 1.174335 0.732915 -1.814085 7.431896 -53.817533 0.225824 -3.223246 53.086170 -2.625282 -10.114481 -12.146400 0.254300 0.000000 -54.125800
11.278190 16.855129 -4.239499 -171.445495 50.689477 -141.651886 -13.918745 0.384046 -0.945852 -16.474156 -3.222360 -26.343719 -1.166133 1.246841 34.742990 0.581879 1.883521 -6.316403 0.032700 0.000000 -41.572600 5.803909 1.154510 1.121400 -1.929154 8.227157 -54.608075 0.542530 -2.828468 47.898132 -2.601781 -9.689234 -11.223510 -0.014000 -0.000000 -55.097800
11.497188 16.945769 -4.397818 -171.624167 50.218473 -141.530574 -14.143085 0.460142 -1.275314 -16.224228 -2.052586 -26.074967 -1.028653 1.353929 34.728631 0.579382 2.143475 -3.363627 0.169900 -0.000000 -44.264401 5.472028 1.090100 1.544516 -2.038149 8.908790 -55.244701 0.876809 -2.380420 42.384281 -2.533388 -9.190993 -10.056588 -0.320400 -0.000000 -56.234500
11.721810 17.024131 -4.558570 -171.825268 49.834050 -141.468283 -14.341263 0.550236 -1.628395 -16.099865 -0.749256 -25.837156 -0.911278 1.461020 34.886826 0.644032 2.731057 -0.760701 0.328000 0.000000 -45.424299 5.187029 0.989963 1.994251 -2.105062 9.448071 -55.724598 1.235685 -1.875929 36.623720 -2.407616 -8.611451 -8.652260 -0.648399 -0.000000 -57.548100
11.951839 17.088655 -4.721574 -172.056869 49.528700 -141.490818 -14.509783 0.655846 -2.001375 -16.093155 0.673949 -25.596499 -0.816214 1.567224 35.233362 0.767082 3.665617 1.418085 0.547600 -0.000000 -45.068600 4.959986 0.870645 2.453012 -2.091743 9.812129 -56.043767 1.622623 -1.319838 30.734310 -2.213103 -7.938184 -7.014234 -0.977200 0.000000 -59.247100
12.186882 17.138456 -4.886380 -172.324756 49.287020 -141.629853 -14.646085 0.778752 -2.389837 -16.181762 2.206656 -25.314177 -0.743727 1.673092 35.779825 0.937683 4.932227 3.116440 0.850101 -0.000000 -43.238100 4.797149 0.754604 2.891440 -1.949991 9.972995 -56.201112 2.037685 -0.730546 24.902765 -1.942383 -7.132070 -5.213563 -1.267400 0.000000 -61.080900
12.426397 17.173251 -5.052440 -172.634771 49.089191 -141.918525 -14.747915 0.920958 -2.787024 -16.331997 3.832380 -24.947962 -0.691022 1.779705 36.525685 1.144512 6.484293 4.317626 1.232100 0.000000 -40.217300 4.700376 0.663582 3.274736 -1.628837 9.910483 -56.209770 2.472836 -0.140634 19.352532 -1.595340 -6.150261 -3.308943 -1.479300 0.000000 -63.198600
12.669660 17.193309 -5.219221 -172.980120 48.913990 -142.373691 -14.816226 1.082866 -3.185371 -16.494495 5.533019 -24.464703 -0.653128 1.888681 37.462948 1.375868 8.243567 5.039357 1.665599 0.000000 -36.354299 4.663230 0.610442 3.573245 -1.081350 9.628960 -56.099843 2.917599 0.410709 14.318194 -1.181843 -4.944301 -1.399224 -1.568300 -0.000000 -65.443700
12.915913 17.199359 -5.386229 -173.345046 48.743259 -142.993414 -14.855507 1.262353 -3.578204 -16.610218 7.285073 -23.842667 -0.622975 2.001989 38.577174 1.620404 10.114799 5.348763 2.109901 0.000000 -32.183800 4.673546 0.594822 3.771521 -0.285491 9.163641 -55.904504 3.358803 0.890011 9.978625 -0.722985 -3.500972 0.434352 -1.506700 0.000000 -67.774700
13.164523 17.192248 -5.552971 -173.712329 48.562961 -143.760602 -14.872115 1.455288 -3.959331 -16.623721 9.055326 -23.073616 -0.592565 2.121467 39.852353 1.867453 12.002488 5.352090 2.528199 0.000000 -28.331500 4.717783 0.606394 3.871149 0.734059 8.572777 -55.651314 3.781140 1.276346 6.436121 -0.247779 -1.853950 2.123145 -1.290000 -0.000000 -69.992700
13.415263 17.172726 -5.718739 -174.078801 48.363357 -144.657423 -14.871385 1.657517 -4.322902 -16.496485 10.801446 -22.162347 -0.555623 2.249060 41.279938 2.106607 13.819783 5.148972 2.892500 0.000001 -25.165600 4.786508 0.630981 3.886541 1.903342 7.919829 -55.359238 4.166587 1.560014 3.724049 0.212367 -0.085425 3.622746 -0.941201 -0.000000 -71.826000
13.668013 17.141327 -5.883196 -174.437227 48.135717 -145.651161 -14.860594 1.863685 -4.664198 -16.202355 12.481389 -21.132191 -0.507684 2.387110 42.861302 2.328496 15.494471 4.819761 3.185700 -0.000000 -22.823700 4.874104 0.653351 3.844641 3.106161 7.281836 -55.021282 4.491902 1.745467 1.758761 0.622514 1.626775 4.999925 -0.523600 0.000000 -73.733400
13.923089 17.098228 -6.045806 -174.808321 47.871797 -146.732602 -14.840547 2.072403 -4.975616 -15.748323 14.043831 -20.002460 -0.445489 2.536523 44.595470 2.526965 16.983957 4.423361 3.403400 0.000000 -21.253200 4.982296 0.665308 3.764725 4.234231 6.688309 -54.659405 4.743923 1.829659 0.535169 0.965511 3.186857 6.214674 -0.079800 0.000000 -75.157300
14.180799 17.043451 -6.206413 -175.204808 47.564590 -147.879686 -14.813480 2.281472 -5.250084 -15.150479 15.445502 -18.809971 -0.367096 2.698238 46.486453 2.698709 18.265759 3.996276 3.547800 -0.000000 -20.311200 5.113554 0.660571 3.670167 5.186391 6.174676 -54.292340 4.909981 1.816505 -0.008491 1.226981 4.459557 7.306150 0.331101 0.000000 -76.256900
14.441419 16.976883 -6.365262 -175.624828 47.208220 -149.054975 -14.782980 2.487990 -5.480413 -14.428628 16.653358 -17.607392 -0.271553 2.873043 48.542326 2.843006 19.334528 3.554384 3.623700 0.000000 -19.828300 5.267182 0.634939 3.585334 5.888106 5.783129 -53.954717 4.982407 1.712104 0.078511 1.398607 5.329741 8.294772 0.654200 -0.000000 -77.040400
14.704996 16.898509 -6.522533 -176.070477 46.799274 -150.235361 -14.749931 2.690936 -5.660666 -13.611451 17.644146 -16.436183 -0.158236 3.060830 50.763105 2.961862 20.204792 3.102698 3.638900 0.000000 -19.664200 5.442688 0.588434 3.520370 6.322040 5.520191 -53.704469 4.961986 1.515991 0.816030 1.484093 5.770711 9.146838 0.858600 -0.000001 -77.488300
14.971393 16.808422 -6.678983 -176.505395 46.339682 -151.354588 -14.722005 2.885590 -5.786967 -12.707606 18.417849 -15.372530 -0.027965 3.262608 53.161715 3.057143 20.889350 2.623180 3.593499 0.000000 -19.652500 5.630075 0.518818 3.498676 6.482409 5.446973 -53.598452 4.845931 1.239045 2.177336 1.480110 5.717703 9.860094 0.902200 0.000000 -77.540400
15.240021 16.707101 -6.835140 -176.903006 45.832910 -152.377011 -14.702327 3.070255 -5.856710 -11.729556 18.982968 -14.461153 0.119369 3.477717 55.735196 3.132294 21.414509 2.096564 3.489500 0.000000 -19.669900 5.820915 0.429885 3.520199 6.431074 5.559270 -53.713395 4.640131 0.881123 4.233677 1.396838 5.239956 10.349269 0.787400 0.000000 -76.925800
15.509915 16.595289 -6.991580 -177.232176 45.283005 -153.274735 -14.694050 3.243070 -5.869993 -10.679666 19.360233 -13.731620 0.284512 3.704803 58.473569 3.190804 21.807621 1.500535 3.327500 0.000000 -19.607600 6.006299 0.329694 3.575304 6.258512 5.829985 -54.107293 4.349651 0.444985 7.035442 1.245165 4.433751 10.565563 0.539500 -0.000001 -75.898300
15.780040 16.474090 -7.148510 -177.480464 44.692122 -154.051044 -14.695359 3.403805 -5.827609 -9.565213 19.570729 -13.186395 0.469573 3.940666 61.355275 3.236764 22.100478 0.818635 3.110600 0.000000 -19.386600 6.181356 0.234315 3.638890 6.067540 6.184667 -54.822429 3.981582 -0.068574 10.662581 1.043526 3.466040 10.416225 0.221100 -0.000000 -74.272700
16.049148 16.344956 -7.305699 -177.656058 44.058310 -154.737890 -14.700167 3.552633 -5.733288 -8.401025 19.631896 -12.801341 0.677693 4.180557 64.349032 3.274503 22.325558 0.044980 2.845200 0.000000 -18.971800 6.346876 0.166897 3.678125 5.937050 6.525396 -55.849974 3.543365 -0.650003 15.142121 0.812247 2.503149 9.823956 -0.091800 0.000001 -71.838600
16.315854 16.209854 -7.462521 -177.776240 43.380229 -155.376927 -14.701999 3.688111 -5.596631 -7.205675 19.557578 -12.539692 0.911720 4.419808 67.419007 3.307897 22.510362 -0.813913 2.540300 -0.000000 -18.376699 6.507070 0.149695 3.667556 5.898931 6.775515 -57.106513 3.045694 -1.269450 20.357066 0.565578 1.628969 8.798734 -0.348000 0.000001 -68.920100
